<?xml version="1.0" encoding="utf-8"?>
<!-- Generator: Adobe Illustrator 22.0.1, SVG Export Plug-In . SVG Version: 6.00 Build 0)  -->
<svg version="1.1" id="Layer_1" xmlns="http://www.w3.org/2000/svg" xmlns:xlink="http://www.w3.org/1999/xlink" x="0px" y="0px"
	 viewBox="0 0 830.6 726.4" style="enable-background:new 0 0 830.6 726.4;" xml:space="preserve">
<style type="text/css">
	.st0{fill:#2D96CB;}
</style>
<title>CV Andres Mateo Martinez-05</title>
<polygon class="st0" points="321,575.9 459.5,219.4 599.2,580.1 495.2,580.1 495.2,724.4 820.2,724.4 531.6,3 387.3,3 158.1,575.9 
	"/>
<path class="st0" d="M2.9,692.3v-66.7h66.7v66.7H56.3V639H43v53.4H29.6V639H16.3v53.4L2.9,692.3z"/>
<path class="st0" d="M132.6,692.3V679h12.9l-12.9-33.3l-18.1,46.7H99.2l26.7-66.7h13.3l26.7,66.7H132.6z"/>
<path class="st0" d="M195.5,625.6h66.7V639h-26.6v53.4h-13.3V639h-26.8V625.6z"/>
<path class="st0" d="M305.2,665.6V679h53.4v13.3h-66.7v-66.7h66.7V639h-53.4v13.3h40v13.4L305.2,665.6z"/>
<path class="st0" d="M388.2,692.3v-66.7h66.7v66.7H388.2z M441.6,679v-40h-40.1v40H441.6z"/>
</svg>
